<?xml version="1.0" standalone="no"?>
<!DOCTYPE svg PUBLIC "-//W3C//DTD SVG 1.1//EN" "http://www.w3.org/Graphics/SVG/1.1/DTD/svg11.dtd" >
<svg>
<metadata>
Created by FontForge 20110222 at Sat Jun 16 11:02:01 2012
 By www-data
Copyright Andrew McCluskey 2012
</metadata>
<defs>
<font id="Distortion-Of-The-Brain-And-Mind" horiz-adv-x="416" >
  <font-face 
    font-family="Distortion Of The Brain And Mind"
    font-weight="400"
    font-stretch="normal"
    units-per-em="1024"
    panose-1="0 0 4 0 0 0 0 0 0 0"
    ascent="819"
    descent="-205"
    x-height="448"
    cap-height="608"
    bbox="-208 -160 2416 608"
    underline-thickness="51"
    underline-position="127"
    unicode-range="U+0020-2122"
  />
    <missing-glyph />
    <glyph glyph-name="space" unicode=" " horiz-adv-x="288" 
 />
    <glyph glyph-name="exclam" unicode="!" horiz-adv-x="192" 
d="M0 0l64 128h144l-64 -128h-144zM80 160l32 64h-32l112 224h144l-112 -224h32l-32 -64h-144z" />
    <glyph glyph-name="quotedbl" unicode="&#x22;" horiz-adv-x="192" 
d="M192 448l64 128h144l-64 -128h-144zM384 448l64 128h144l-64 -128h-144z" />
    <glyph glyph-name="numbersign" unicode="#" horiz-adv-x="544" 
d="M384 192l16 32h-32l16 32h-80l-16 -32h32l-16 -32h80zM64 0l32 64h-64l64 128h64l16 32h-32l16 32h-64l64 128h64l32 64h144l-32 -64h80l32 64h144l-32 -64h64l-64 -128h-64l-16 -32h32l-16 -32h64l-64 -128h-64l-32 -64h-144l32 64h-80l-32 -64h-144z" />
    <glyph glyph-name="dollar" unicode="$" 
d="M48 -128l64 128h-112l64 128h224l16 32h-224l32 64h-32l112 224h112l64 128h144l-64 -128h112l-64 -128h-224l-16 -32h224l-32 -64h32l-112 -224h-112l-64 -128h-144z" />
    <glyph glyph-name="percent" unicode="%" 
d="M224 0l64 128h144l-64 -128h-144zM128 320l64 128h144l-64 -128h-144zM0 0l224 224h-32l224 224h160l-224 -224h32l-224 -224h-160z" />
    <glyph glyph-name="ampersand" unicode="&#x26;" 
d="M0 0l112 224h-32l112 224h240l-64 -128h-96l-16 -32h96l-32 -64h32l-32 -64h-96l-16 -32h224l-64 -128h-368z" />
    <glyph glyph-name="quotesingle" unicode="'" horiz-adv-x="192" 
d="M192 448l64 128h144l-64 -128h-144z" />
    <glyph glyph-name="parenleft" unicode="(" horiz-adv-x="320" 
d="M0 0l112 224h-32l112 224h272l-64 -128h-128l-48 -96h32l-48 -96h128l-64 -128h-272z" />
    <glyph glyph-name="parenright" unicode=")" horiz-adv-x="320" 
d="M0 0l64 128h128l48 96h-32l48 96h-128l64 128h272l-112 -224h32l-112 -224h-272z" />
    <glyph glyph-name="asterisk" unicode="*" horiz-adv-x="544" 
d="M384 192l16 32h-32l16 32h-80l-16 -32h32l-16 -32h80zM64 0l32 64h-64l64 128h64l16 32h-32l16 32h-64l64 128h64l32 64h144l-32 -64h80l32 64h144l-32 -64h64l-64 -128h-64l-16 -32h32l-16 -32h64l-64 -128h-64l-32 -64h-144l32 64h-80l-32 -64h-144z" />
    <glyph glyph-name="plus" unicode="+" 
d="M144 64l48 96h-112l32 64h-32l32 64h112l48 96h144l-48 -96h112l-32 -64h32l-32 -64h-112l-48 -96h-144z" />
    <glyph glyph-name="comma" unicode="," horiz-adv-x="192" 
d="M-32 -64l96 192h144l-96 -192h-144z" />
    <glyph glyph-name="hyphen" unicode="-" 
d="M80 160l32 64h-32l32 64h368l-32 -64h32l-32 -64h-368z" />
    <glyph glyph-name="period" unicode="." horiz-adv-x="192" 
d="M0 0l64 128h144l-64 -128h-144z" />
    <glyph glyph-name="slash" unicode="/" 
d="M0 0l224 224h-32l224 224h160l-224 -224h32l-224 -224h-160z" />
    <glyph glyph-name="zero" unicode="0" 
d="M288 128l48 96h-32l48 96h-80l-48 -96h32l-48 -96h80zM0 0l112 224h-32l112 224h368l-112 -224h32l-112 -224h-368z" />
    <glyph glyph-name="one" unicode="1" horiz-adv-x="192" 
d="M0 0l112 224h-32l112 224h144l-112 -224h32l-112 -224h-144z" />
    <glyph glyph-name="two" unicode="2" 
d="M0 0l112 224h-32l32 64h224l16 32h-224l64 128h368l-112 -224h32l-32 -64h-224l-16 -32h224l-64 -128h-368z" />
    <glyph glyph-name="three" unicode="3" 
d="M0 0l64 128h224l16 32h-224l32 64h-32l32 64h224l16 32h-224l64 128h368l-112 -224h32l-112 -224h-368z" />
    <glyph glyph-name="four" unicode="4" 
d="M224 0l80 160h-224l32 64h-32l112 224h144l-80 -160h80l80 160h144l-112 -224h32l-112 -224h-144z" />
    <glyph glyph-name="five" unicode="5" 
d="M0 0l64 128h224l16 32h-224l32 64h-32l112 224h368l-64 -128h-224l-16 -32h224l-32 -64h32l-112 -224h-368z" />
    <glyph glyph-name="six" unicode="6" 
d="M288 128l16 32h-80l-16 -32h80zM0 0l112 224h-32l112 224h368l-64 -128h-224l-16 -32h224l-32 -64h32l-112 -224h-368z" />
    <glyph glyph-name="seven" unicode="7" 
d="M0 0l112 224h-32l32 64h224l16 32h-224l64 128h368l-112 -224h32l-32 -64h-224l-80 -160h-144z" />
    <glyph glyph-name="eight" unicode="8" 
d="M288 128l16 32h-80l-16 -32h80zM336 288l16 32h-80l-16 -32h80zM0 0l112 224h-32l112 224h368l-112 -224h32l-112 -224h-368z" />
    <glyph glyph-name="nine" unicode="9" 
d="M336 288l16 32h-80l-16 -32h80zM0 0l64 128h224l16 32h-224l32 64h-32l112 224h368l-112 -224h32l-112 -224h-368z" />
    <glyph glyph-name="colon" unicode=":" horiz-adv-x="192" 
d="M32 64l64 128h144l-64 -128h-144zM96 256l64 128h144l-64 -128h-144z" />
    <glyph glyph-name="semicolon" unicode=";" horiz-adv-x="192" 
d="M0 0l96 192h144l-96 -192h-144zM96 256l64 128h144l-64 -128h-144z" />
    <glyph glyph-name="equal" unicode="=" 
d="M32 64l64 128h368l-64 -128h-368zM96 256l64 128h368l-64 -128h-368z" />
    <glyph glyph-name="question" unicode="?" 
d="M0 0l64 128h144l-64 -128h-144zM80 160l32 64h-32l32 64h224l16 32h-224l64 128h368l-112 -224h32l-32 -64h-368z" />
    <glyph glyph-name="at" unicode="@" horiz-adv-x="768" 
d="M0 0l112 224h-32l112 224h528l-112 -224h32l-32 -64h-336l32 64h-32l32 64h192l16 32h-240l-48 -96h32l-48 -96h384l-64 -128h-528z" />
    <glyph glyph-name="A" unicode="A" 
d="M288 128l16 32h-80l-16 -32h80zM0 0l112 224h-32l32 64h224l16 32h-224l64 128h368l-112 -224h32l-112 -224h-368z" />
    <glyph glyph-name="B" unicode="B" 
d="M288 128l48 96h-32l48 96h-80l-48 -96h32l-48 -96h80zM0 0l112 224h-32l176 352h144l-64 -128h224l-112 -224h32l-112 -224h-368z" />
    <glyph glyph-name="C" unicode="C" 
d="M0 0l112 224h-32l112 224h368l-64 -128h-224l-48 -96h32l-48 -96h224l-64 -128h-368z" />
    <glyph glyph-name="D" unicode="D" 
d="M288 128l48 96h-32l48 96h-80l-48 -96h32l-48 -96h80zM0 0l112 224h-32l112 224h224l64 128h144l-176 -352h32l-112 -224h-368z" />
    <glyph glyph-name="E" unicode="E" 
d="M336 288l16 32h-80l-16 -32h80zM0 0l112 224h-32l112 224h368l-112 -224h32l-32 -64h-224l-16 -32h224l-64 -128h-368z" />
    <glyph glyph-name="F" unicode="F" horiz-adv-x="320" 
d="M0 0l112 224h-32l192 384h272l-64 -128h-128l-16 -32h128l-64 -128h-128l-48 -96h32l-112 -224h-144z" />
    <glyph glyph-name="G" unicode="G" 
d="M288 128l48 96h-32l48 96h-80l-48 -96h32l-48 -96h80zM-80 -160l64 128h224l16 32h-224l112 224h-32l112 224h368l-112 -224h32l-192 -384h-368z" />
    <glyph glyph-name="H" unicode="H" 
d="M0 0l112 224h-32l176 352h144l-64 -128h224l-112 -224h32l-112 -224h-144l112 224h-32l48 96h-80l-48 -96h32l-112 -224h-144z" />
    <glyph glyph-name="I" unicode="I" horiz-adv-x="192" 
d="M0 0l112 224h-32l112 224h144l-112 -224h32l-112 -224h-144zM208 480l64 128h144l-64 -128h-144z" />
    <glyph glyph-name="J" unicode="J" horiz-adv-x="192" 
d="M-208 -160l64 128h128l128 256h-32l112 224h144l-112 -224h32l-192 -384h-272zM208 480l64 128h144l-64 -128h-144z" />
    <glyph glyph-name="K" unicode="K" 
d="M0 0l112 224h-32l176 352h144l-144 -288h32l96 96l32 64h144l-48 -96l-128 -128h32v-128l-48 -96h-144l64 128v32h-64l-80 -160h-144z" />
    <glyph glyph-name="L" unicode="L" horiz-adv-x="192" 
d="M0 0l112 224h-32l176 352h144l-176 -352h32l-112 -224h-144z" />
    <glyph glyph-name="M" unicode="M" horiz-adv-x="640" 
d="M0 0l112 224h-32l112 224h592l-112 -224h32l-112 -224h-144l112 224h-32l48 96h-80l-48 -96h32l-112 -224h-144l112 224h-32l48 96h-80l-48 -96h32l-112 -224h-144z" />
    <glyph glyph-name="N" unicode="N" 
d="M0 0l112 224h-32l112 224h368l-112 -224h32l-112 -224h-144l112 224h-32l48 96h-80l-48 -96h32l-112 -224h-144z" />
    <glyph glyph-name="O" unicode="O" 
d="M288 128l48 96h-32l48 96h-80l-48 -96h32l-48 -96h80zM0 0l112 224h-32l112 224h368l-112 -224h32l-112 -224h-368z" />
    <glyph glyph-name="P" unicode="P" 
d="M288 128l48 96h-32l48 96h-80l-48 -96h32l-48 -96h80zM-64 -128l176 352h-32l112 224h368l-112 -224h32l-112 -224h-224l-64 -128h-144z" />
    <glyph glyph-name="Q" unicode="Q" 
d="M288 128l48 96h-32l48 96h-80l-48 -96h32l-48 -96h80zM160 -128l64 128h-224l112 224h-32l112 224h368l-112 -224h32l-176 -352h-144z" />
    <glyph glyph-name="R" unicode="R" horiz-adv-x="320" 
d="M0 0l112 224h-32l112 224h272l-64 -128h-128l-48 -96h32l-112 -224h-144z" />
    <glyph glyph-name="S" unicode="S" 
d="M0 0l64 128h224l16 32h-224l32 64h-32l112 224h368l-64 -128h-224l-16 -32h224l-32 -64h32l-112 -224h-368z" />
    <glyph glyph-name="T" unicode="T" horiz-adv-x="320" 
d="M0 0l112 224h-32l176 352h144l-64 -128h128l-64 -128h-128l-48 -96h32l-48 -96h128l-64 -128h-272z" />
    <glyph glyph-name="U" unicode="U" 
d="M0 0l112 224h-32l112 224h144l-112 -224h32l-48 -96h80l48 96h-32l112 224h144l-112 -224h32l-112 -224h-368z" />
    <glyph glyph-name="V" unicode="V" 
d="M128 0v224h-32v32l96 192h144l-112 -224h32v-96l64 64l16 32h-32l112 224h144l-112 -224h32l-32 -64l-160 -160h-160z" />
    <glyph glyph-name="W" unicode="W" horiz-adv-x="640" 
d="M0 0l112 224h-32l112 224h144l-112 -224h32l-48 -96h80l48 96h-32l112 224h144l-112 -224h32l-48 -96h80l48 96h-32l112 224h144l-112 -224h32l-112 -224h-592z" />
    <glyph glyph-name="X" unicode="X" 
d="M0 0l32 64l160 160h-32v160l32 64h144l-48 -96v-64l96 96l32 64h144l-48 -96l-128 -128h32v-128l-48 -96h-144l64 128v32l-128 -128l-16 -32h-144z" />
    <glyph glyph-name="Y" unicode="Y" 
d="M160 -128l64 128h-224l112 224h-32l112 224h144l-112 -224h32l-48 -96h80l48 96h-32l112 224h144l-112 -224h32l-176 -352h-144z" />
    <glyph glyph-name="Z" unicode="Z" 
d="M0 0l112 224h-32l32 64h224l16 32h-224l64 128h368l-112 -224h32l-32 -64h-224l-16 -32h224l-64 -128h-368z" />
    <glyph glyph-name="bracketleft" unicode="[" horiz-adv-x="320" 
d="M0 0l112 224h-32l112 224h272l-64 -128h-128l-48 -96h32l-48 -96h128l-64 -128h-272z" />
    <glyph glyph-name="backslash" unicode="\" horiz-adv-x="352" 
d="M192 0v224h-32v224h128v-224h32v-224h-128z" />
    <glyph glyph-name="bracketright" unicode="]" horiz-adv-x="320" 
d="M0 0l64 128h128l48 96h-32l48 96h-128l64 128h272l-112 -224h32l-112 -224h-272z" />
    <glyph glyph-name="underscore" unicode="_" 
d="M0 0l64 128h368l-64 -128h-368z" />
    <glyph glyph-name="grave" unicode="`" horiz-adv-x="192" 
d="M192 448l64 128h144l-64 -128h-144z" />
    <glyph glyph-name="a" unicode="a" 
d="M288 128l16 32h-80l-16 -32h80zM0 0l112 224h-32l32 64h224l16 32h-224l64 128h368l-112 -224h32l-112 -224h-368z" />
    <glyph glyph-name="b" unicode="b" 
d="M288 128l48 96h-32l48 96h-80l-48 -96h32l-48 -96h80zM0 0l112 224h-32l176 352h144l-64 -128h224l-112 -224h32l-112 -224h-368z" />
    <glyph glyph-name="c" unicode="c" 
d="M0 0l112 224h-32l112 224h368l-64 -128h-224l-48 -96h32l-48 -96h224l-64 -128h-368z" />
    <glyph glyph-name="d" unicode="d" 
d="M288 128l48 96h-32l48 96h-80l-48 -96h32l-48 -96h80zM0 0l112 224h-32l112 224h224l64 128h144l-176 -352h32l-112 -224h-368z" />
    <glyph glyph-name="e" unicode="e" 
d="M336 288l16 32h-80l-16 -32h80zM0 0l112 224h-32l112 224h368l-112 -224h32l-32 -64h-224l-16 -32h224l-64 -128h-368z" />
    <glyph glyph-name="f" unicode="f" horiz-adv-x="320" 
d="M0 0l112 224h-32l192 384h272l-64 -128h-128l-16 -32h128l-64 -128h-128l-48 -96h32l-112 -224h-144z" />
    <glyph glyph-name="g" unicode="g" 
d="M288 128l48 96h-32l48 96h-80l-48 -96h32l-48 -96h80zM-80 -160l64 128h224l16 32h-224l112 224h-32l112 224h368l-112 -224h32l-192 -384h-368z" />
    <glyph glyph-name="h" unicode="h" 
d="M0 0l112 224h-32l176 352h144l-64 -128h224l-112 -224h32l-112 -224h-144l112 224h-32l48 96h-80l-48 -96h32l-112 -224h-144z" />
    <glyph glyph-name="i" unicode="i" horiz-adv-x="192" 
d="M0 0l112 224h-32l112 224h144l-112 -224h32l-112 -224h-144zM208 480l64 128h144l-64 -128h-144z" />
    <glyph glyph-name="j" unicode="j" horiz-adv-x="192" 
d="M-208 -160l64 128h128l128 256h-32l112 224h144l-112 -224h32l-192 -384h-272zM208 480l64 128h144l-64 -128h-144z" />
    <glyph glyph-name="k" unicode="k" 
d="M0 0l112 224h-32l176 352h144l-144 -288h32l96 96l32 64h144l-48 -96l-128 -128h32v-128l-48 -96h-144l64 128v32h-64l-80 -160h-144z" />
    <glyph glyph-name="l" unicode="l" horiz-adv-x="192" 
d="M0 0l112 224h-32l176 352h144l-176 -352h32l-112 -224h-144z" />
    <glyph glyph-name="m" unicode="m" horiz-adv-x="640" 
d="M0 0l112 224h-32l112 224h592l-112 -224h32l-112 -224h-144l112 224h-32l48 96h-80l-48 -96h32l-112 -224h-144l112 224h-32l48 96h-80l-48 -96h32l-112 -224h-144z" />
    <glyph glyph-name="n" unicode="n" 
d="M0 0l112 224h-32l112 224h368l-112 -224h32l-112 -224h-144l112 224h-32l48 96h-80l-48 -96h32l-112 -224h-144z" />
    <glyph glyph-name="o" unicode="o" 
d="M288 128l48 96h-32l48 96h-80l-48 -96h32l-48 -96h80zM0 0l112 224h-32l112 224h368l-112 -224h32l-112 -224h-368z" />
    <glyph glyph-name="p" unicode="p" 
d="M288 128l48 96h-32l48 96h-80l-48 -96h32l-48 -96h80zM-64 -128l176 352h-32l112 224h368l-112 -224h32l-112 -224h-224l-64 -128h-144z" />
    <glyph glyph-name="q" unicode="q" 
d="M288 128l48 96h-32l48 96h-80l-48 -96h32l-48 -96h80zM160 -128l64 128h-224l112 224h-32l112 224h368l-112 -224h32l-176 -352h-144z" />
    <glyph glyph-name="r" unicode="r" horiz-adv-x="320" 
d="M0 0l112 224h-32l112 224h272l-64 -128h-128l-48 -96h32l-112 -224h-144z" />
    <glyph glyph-name="s" unicode="s" 
d="M0 0l64 128h224l16 32h-224l32 64h-32l112 224h368l-64 -128h-224l-16 -32h224l-32 -64h32l-112 -224h-368z" />
    <glyph glyph-name="t" unicode="t" horiz-adv-x="320" 
d="M0 0l112 224h-32l176 352h144l-64 -128h128l-64 -128h-128l-48 -96h32l-48 -96h128l-64 -128h-272z" />
    <glyph glyph-name="u" unicode="u" 
d="M0 0l112 224h-32l112 224h144l-112 -224h32l-48 -96h80l48 96h-32l112 224h144l-112 -224h32l-112 -224h-368z" />
    <glyph glyph-name="v" unicode="v" 
d="M128 0v224h-32v32l96 192h144l-112 -224h32v-96l64 64l16 32h-32l112 224h144l-112 -224h32l-32 -64l-160 -160h-160z" />
    <glyph glyph-name="w" unicode="w" horiz-adv-x="640" 
d="M0 0l112 224h-32l112 224h144l-112 -224h32l-48 -96h80l48 96h-32l112 224h144l-112 -224h32l-48 -96h80l48 96h-32l112 224h144l-112 -224h32l-112 -224h-592z" />
    <glyph glyph-name="x" unicode="x" 
d="M0 0l32 64l160 160h-32v160l32 64h144l-48 -96v-64l96 96l32 64h144l-48 -96l-128 -128h32v-128l-48 -96h-144l64 128v32l-128 -128l-16 -32h-144z" />
    <glyph glyph-name="y" unicode="y" 
d="M160 -128l64 128h-224l112 224h-32l112 224h144l-112 -224h32l-48 -96h80l48 96h-32l112 224h144l-112 -224h32l-176 -352h-144z" />
    <glyph glyph-name="z" unicode="z" 
d="M0 0l112 224h-32l32 64h224l16 32h-224l64 128h368l-112 -224h32l-32 -64h-224l-16 -32h224l-64 -128h-368z" />
    <glyph glyph-name="braceleft" unicode="{" horiz-adv-x="320" 
d="M0 0l112 224h-32l112 224h272l-64 -128h-128l-48 -96h32l-48 -96h128l-64 -128h-272z" />
    <glyph glyph-name="bar" unicode="|" horiz-adv-x="192" 
d="M0 0l112 224h-32l112 224h144l-112 -224h32l-112 -224h-144z" />
    <glyph glyph-name="braceright" unicode="}" horiz-adv-x="320" 
d="M0 0l64 128h128l48 96h-32l48 96h-128l64 128h272l-112 -224h32l-112 -224h-272z" />
    <glyph glyph-name="asciitilde" unicode="~" 
d="M80 160l32 64h-32l32 64h368l-32 -64h32l-32 -64h-368z" />
    <glyph glyph-name="exclamdown" unicode="&#xa1;" horiz-adv-x="2464" 
d="M1248 0l64 128h144l-64 -128h-144zM752 288l16 32h-80l-16 -32h80zM2144 128l48 96h-32l48 96h-80l-48 -96h32l-48 -96h80zM0 0l112 224h-32l112 224h368l-112 -224h32l-112 -224h-144l112 224h-32l48 96h-80l-48 -96h32l-112 -224h-144zM416 0l112 224h-32l112 224h368
l-112 -224h32l-112 -224h-144l80 160h-80l-80 -160h-144zM832 0l112 224h-32l112 224h144l-112 -224h32l-48 -96h224l-64 -128h-368zM1440 0l64 128h224l16 32h-224l32 64h-32l112 224h368l-64 -128h-224l-16 -32h224l-32 -64h32l-112 -224h-368zM1856 0l112 224h-32
l112 224h368l-112 -224h32l-112 -224h-368z" />
    <glyph glyph-name="cent" unicode="&#xa2;" 
d="M48 -128l64 128h-112l112 224h-32l112 224h112l64 128h144l-64 -128h112l-64 -128h-224l-48 -96h32l-48 -96h224l-64 -128h-112l-64 -128h-144z" />
    <glyph glyph-name="sterling" unicode="&#xa3;" horiz-adv-x="480" 
d="M0 0l64 128h64l16 32h-64l32 64h-32l32 64h64l80 160h368l-64 -128h-224l-16 -32h128l-32 -64h32l-32 -64h-128l-16 -32h224l-64 -128h-432z" />
    <glyph glyph-name="currency" unicode="&#xa4;" horiz-adv-x="2464" 
d="M1248 0l64 128h144l-64 -128h-144zM752 288l16 32h-80l-16 -32h80zM2144 128l48 96h-32l48 96h-80l-48 -96h32l-48 -96h80zM0 0l112 224h-32l112 224h368l-112 -224h32l-112 -224h-144l112 224h-32l48 96h-80l-48 -96h32l-112 -224h-144zM416 0l112 224h-32l112 224h368
l-112 -224h32l-112 -224h-144l80 160h-80l-80 -160h-144zM832 0l112 224h-32l112 224h144l-112 -224h32l-48 -96h224l-64 -128h-368zM1440 0l64 128h224l16 32h-224l32 64h-32l112 224h368l-64 -128h-224l-16 -32h224l-32 -64h32l-112 -224h-368zM1856 0l112 224h-32
l112 224h368l-112 -224h32l-112 -224h-368z" />
    <glyph glyph-name="yen" unicode="&#xa5;" 
d="M112 0l32 64h-64l32 64h64l16 32h-112l32 64h-32l112 224h144l-80 -160h80l80 160h144l-112 -224h32l-32 -64h-112l-16 -32h64l-32 -64h-64l-32 -64h-144z" />
    <glyph glyph-name="brokenbar" unicode="&#xa6;" horiz-adv-x="2464" 
d="M1248 0l64 128h144l-64 -128h-144zM752 288l16 32h-80l-16 -32h80zM2144 128l48 96h-32l48 96h-80l-48 -96h32l-48 -96h80zM0 0l112 224h-32l112 224h368l-112 -224h32l-112 -224h-144l112 224h-32l48 96h-80l-48 -96h32l-112 -224h-144zM416 0l112 224h-32l112 224h368
l-112 -224h32l-112 -224h-144l80 160h-80l-80 -160h-144zM832 0l112 224h-32l112 224h144l-112 -224h32l-48 -96h224l-64 -128h-368zM1440 0l64 128h224l16 32h-224l32 64h-32l112 224h368l-64 -128h-224l-16 -32h224l-32 -64h32l-112 -224h-368zM1856 0l112 224h-32
l112 224h368l-112 -224h32l-112 -224h-368z" />
    <glyph glyph-name="section" unicode="&#xa7;" horiz-adv-x="2464" 
d="M1248 0l64 128h144l-64 -128h-144zM752 288l16 32h-80l-16 -32h80zM2144 128l48 96h-32l48 96h-80l-48 -96h32l-48 -96h80zM0 0l112 224h-32l112 224h368l-112 -224h32l-112 -224h-144l112 224h-32l48 96h-80l-48 -96h32l-112 -224h-144zM416 0l112 224h-32l112 224h368
l-112 -224h32l-112 -224h-144l80 160h-80l-80 -160h-144zM832 0l112 224h-32l112 224h144l-112 -224h32l-48 -96h224l-64 -128h-368zM1440 0l64 128h224l16 32h-224l32 64h-32l112 224h368l-64 -128h-224l-16 -32h224l-32 -64h32l-112 -224h-368zM1856 0l112 224h-32
l112 224h368l-112 -224h32l-112 -224h-368z" />
    <glyph glyph-name="dieresis" unicode="&#xa8;" horiz-adv-x="2464" 
d="M1248 0l64 128h144l-64 -128h-144zM752 288l16 32h-80l-16 -32h80zM2144 128l48 96h-32l48 96h-80l-48 -96h32l-48 -96h80zM0 0l112 224h-32l112 224h368l-112 -224h32l-112 -224h-144l112 224h-32l48 96h-80l-48 -96h32l-112 -224h-144zM416 0l112 224h-32l112 224h368
l-112 -224h32l-112 -224h-144l80 160h-80l-80 -160h-144zM832 0l112 224h-32l112 224h144l-112 -224h32l-48 -96h224l-64 -128h-368zM1440 0l64 128h224l16 32h-224l32 64h-32l112 224h368l-64 -128h-224l-16 -32h224l-32 -64h32l-112 -224h-368zM1856 0l112 224h-32
l112 224h368l-112 -224h32l-112 -224h-368z" />
    <glyph glyph-name="copyright" unicode="&#xa9;" horiz-adv-x="2464" 
d="M1248 0l64 128h144l-64 -128h-144zM752 288l16 32h-80l-16 -32h80zM2144 128l48 96h-32l48 96h-80l-48 -96h32l-48 -96h80zM0 0l112 224h-32l112 224h368l-112 -224h32l-112 -224h-144l112 224h-32l48 96h-80l-48 -96h32l-112 -224h-144zM416 0l112 224h-32l112 224h368
l-112 -224h32l-112 -224h-144l80 160h-80l-80 -160h-144zM832 0l112 224h-32l112 224h144l-112 -224h32l-48 -96h224l-64 -128h-368zM1440 0l64 128h224l16 32h-224l32 64h-32l112 224h368l-64 -128h-224l-16 -32h224l-32 -64h32l-112 -224h-368zM1856 0l112 224h-32
l112 224h368l-112 -224h32l-112 -224h-368z" />
    <glyph glyph-name="ordfeminine" unicode="&#xaa;" horiz-adv-x="2464" 
d="M1248 0l64 128h144l-64 -128h-144zM752 288l16 32h-80l-16 -32h80zM2144 128l48 96h-32l48 96h-80l-48 -96h32l-48 -96h80zM0 0l112 224h-32l112 224h368l-112 -224h32l-112 -224h-144l112 224h-32l48 96h-80l-48 -96h32l-112 -224h-144zM416 0l112 224h-32l112 224h368
l-112 -224h32l-112 -224h-144l80 160h-80l-80 -160h-144zM832 0l112 224h-32l112 224h144l-112 -224h32l-48 -96h224l-64 -128h-368zM1440 0l64 128h224l16 32h-224l32 64h-32l112 224h368l-64 -128h-224l-16 -32h224l-32 -64h32l-112 -224h-368zM1856 0l112 224h-32
l112 224h368l-112 -224h32l-112 -224h-368z" />
    <glyph glyph-name="guillemotleft" unicode="&#xab;" horiz-adv-x="2464" 
d="M1248 0l64 128h144l-64 -128h-144zM752 288l16 32h-80l-16 -32h80zM2144 128l48 96h-32l48 96h-80l-48 -96h32l-48 -96h80zM0 0l112 224h-32l112 224h368l-112 -224h32l-112 -224h-144l112 224h-32l48 96h-80l-48 -96h32l-112 -224h-144zM416 0l112 224h-32l112 224h368
l-112 -224h32l-112 -224h-144l80 160h-80l-80 -160h-144zM832 0l112 224h-32l112 224h144l-112 -224h32l-48 -96h224l-64 -128h-368zM1440 0l64 128h224l16 32h-224l32 64h-32l112 224h368l-64 -128h-224l-16 -32h224l-32 -64h32l-112 -224h-368zM1856 0l112 224h-32
l112 224h368l-112 -224h32l-112 -224h-368z" />
    <glyph glyph-name="logicalnot" unicode="&#xac;" horiz-adv-x="2464" 
d="M1248 0l64 128h144l-64 -128h-144zM752 288l16 32h-80l-16 -32h80zM2144 128l48 96h-32l48 96h-80l-48 -96h32l-48 -96h80zM0 0l112 224h-32l112 224h368l-112 -224h32l-112 -224h-144l112 224h-32l48 96h-80l-48 -96h32l-112 -224h-144zM416 0l112 224h-32l112 224h368
l-112 -224h32l-112 -224h-144l80 160h-80l-80 -160h-144zM832 0l112 224h-32l112 224h144l-112 -224h32l-48 -96h224l-64 -128h-368zM1440 0l64 128h224l16 32h-224l32 64h-32l112 224h368l-64 -128h-224l-16 -32h224l-32 -64h32l-112 -224h-368zM1856 0l112 224h-32
l112 224h368l-112 -224h32l-112 -224h-368z" />
    <glyph glyph-name="uni00AD" unicode="&#xad;" 
d="M80 160l32 64h-32l32 64h368l-32 -64h32l-32 -64h-368z" />
    <glyph glyph-name="registered" unicode="&#xae;" horiz-adv-x="2464" 
d="M1248 0l64 128h144l-64 -128h-144zM752 288l16 32h-80l-16 -32h80zM2144 128l48 96h-32l48 96h-80l-48 -96h32l-48 -96h80zM0 0l112 224h-32l112 224h368l-112 -224h32l-112 -224h-144l112 224h-32l48 96h-80l-48 -96h32l-112 -224h-144zM416 0l112 224h-32l112 224h368
l-112 -224h32l-112 -224h-144l80 160h-80l-80 -160h-144zM832 0l112 224h-32l112 224h144l-112 -224h32l-48 -96h224l-64 -128h-368zM1440 0l64 128h224l16 32h-224l32 64h-32l112 224h368l-64 -128h-224l-16 -32h224l-32 -64h32l-112 -224h-368zM1856 0l112 224h-32
l112 224h368l-112 -224h32l-112 -224h-368z" />
    <glyph glyph-name="macron" unicode="&#xaf;" horiz-adv-x="2464" 
d="M1248 0l64 128h144l-64 -128h-144zM752 288l16 32h-80l-16 -32h80zM2144 128l48 96h-32l48 96h-80l-48 -96h32l-48 -96h80zM0 0l112 224h-32l112 224h368l-112 -224h32l-112 -224h-144l112 224h-32l48 96h-80l-48 -96h32l-112 -224h-144zM416 0l112 224h-32l112 224h368
l-112 -224h32l-112 -224h-144l80 160h-80l-80 -160h-144zM832 0l112 224h-32l112 224h144l-112 -224h32l-48 -96h224l-64 -128h-368zM1440 0l64 128h224l16 32h-224l32 64h-32l112 224h368l-64 -128h-224l-16 -32h224l-32 -64h32l-112 -224h-368zM1856 0l112 224h-32
l112 224h368l-112 -224h32l-112 -224h-368z" />
    <glyph glyph-name="degree" unicode="&#xb0;" horiz-adv-x="2464" 
d="M1248 0l64 128h144l-64 -128h-144zM752 288l16 32h-80l-16 -32h80zM2144 128l48 96h-32l48 96h-80l-48 -96h32l-48 -96h80zM0 0l112 224h-32l112 224h368l-112 -224h32l-112 -224h-144l112 224h-32l48 96h-80l-48 -96h32l-112 -224h-144zM416 0l112 224h-32l112 224h368
l-112 -224h32l-112 -224h-144l80 160h-80l-80 -160h-144zM832 0l112 224h-32l112 224h144l-112 -224h32l-48 -96h224l-64 -128h-368zM1440 0l64 128h224l16 32h-224l32 64h-32l112 224h368l-64 -128h-224l-16 -32h224l-32 -64h32l-112 -224h-368zM1856 0l112 224h-32
l112 224h368l-112 -224h32l-112 -224h-368z" />
    <glyph glyph-name="plusminus" unicode="&#xb1;" horiz-adv-x="2464" 
d="M1248 0l64 128h144l-64 -128h-144zM752 288l16 32h-80l-16 -32h80zM2144 128l48 96h-32l48 96h-80l-48 -96h32l-48 -96h80zM0 0l112 224h-32l112 224h368l-112 -224h32l-112 -224h-144l112 224h-32l48 96h-80l-48 -96h32l-112 -224h-144zM416 0l112 224h-32l112 224h368
l-112 -224h32l-112 -224h-144l80 160h-80l-80 -160h-144zM832 0l112 224h-32l112 224h144l-112 -224h32l-48 -96h224l-64 -128h-368zM1440 0l64 128h224l16 32h-224l32 64h-32l112 224h368l-64 -128h-224l-16 -32h224l-32 -64h32l-112 -224h-368zM1856 0l112 224h-32
l112 224h368l-112 -224h32l-112 -224h-368z" />
    <glyph glyph-name="uni00B2" unicode="&#xb2;" horiz-adv-x="2464" 
d="M1248 0l64 128h144l-64 -128h-144zM752 288l16 32h-80l-16 -32h80zM2144 128l48 96h-32l48 96h-80l-48 -96h32l-48 -96h80zM0 0l112 224h-32l112 224h368l-112 -224h32l-112 -224h-144l112 224h-32l48 96h-80l-48 -96h32l-112 -224h-144zM416 0l112 224h-32l112 224h368
l-112 -224h32l-112 -224h-144l80 160h-80l-80 -160h-144zM832 0l112 224h-32l112 224h144l-112 -224h32l-48 -96h224l-64 -128h-368zM1440 0l64 128h224l16 32h-224l32 64h-32l112 224h368l-64 -128h-224l-16 -32h224l-32 -64h32l-112 -224h-368zM1856 0l112 224h-32
l112 224h368l-112 -224h32l-112 -224h-368z" />
    <glyph glyph-name="uni00B3" unicode="&#xb3;" horiz-adv-x="2464" 
d="M1248 0l64 128h144l-64 -128h-144zM752 288l16 32h-80l-16 -32h80zM2144 128l48 96h-32l48 96h-80l-48 -96h32l-48 -96h80zM0 0l112 224h-32l112 224h368l-112 -224h32l-112 -224h-144l112 224h-32l48 96h-80l-48 -96h32l-112 -224h-144zM416 0l112 224h-32l112 224h368
l-112 -224h32l-112 -224h-144l80 160h-80l-80 -160h-144zM832 0l112 224h-32l112 224h144l-112 -224h32l-48 -96h224l-64 -128h-368zM1440 0l64 128h224l16 32h-224l32 64h-32l112 224h368l-64 -128h-224l-16 -32h224l-32 -64h32l-112 -224h-368zM1856 0l112 224h-32
l112 224h368l-112 -224h32l-112 -224h-368z" />
    <glyph glyph-name="acute" unicode="&#xb4;" horiz-adv-x="2464" 
d="M1248 0l64 128h144l-64 -128h-144zM752 288l16 32h-80l-16 -32h80zM2144 128l48 96h-32l48 96h-80l-48 -96h32l-48 -96h80zM0 0l112 224h-32l112 224h368l-112 -224h32l-112 -224h-144l112 224h-32l48 96h-80l-48 -96h32l-112 -224h-144zM416 0l112 224h-32l112 224h368
l-112 -224h32l-112 -224h-144l80 160h-80l-80 -160h-144zM832 0l112 224h-32l112 224h144l-112 -224h32l-48 -96h224l-64 -128h-368zM1440 0l64 128h224l16 32h-224l32 64h-32l112 224h368l-64 -128h-224l-16 -32h224l-32 -64h32l-112 -224h-368zM1856 0l112 224h-32
l112 224h368l-112 -224h32l-112 -224h-368z" />
    <glyph glyph-name="uni00B5" unicode="&#xb5;" horiz-adv-x="2464" 
d="M1248 0l64 128h144l-64 -128h-144zM752 288l16 32h-80l-16 -32h80zM2144 128l48 96h-32l48 96h-80l-48 -96h32l-48 -96h80zM0 0l112 224h-32l112 224h368l-112 -224h32l-112 -224h-144l112 224h-32l48 96h-80l-48 -96h32l-112 -224h-144zM416 0l112 224h-32l112 224h368
l-112 -224h32l-112 -224h-144l80 160h-80l-80 -160h-144zM832 0l112 224h-32l112 224h144l-112 -224h32l-48 -96h224l-64 -128h-368zM1440 0l64 128h224l16 32h-224l32 64h-32l112 224h368l-64 -128h-224l-16 -32h224l-32 -64h32l-112 -224h-368zM1856 0l112 224h-32
l112 224h368l-112 -224h32l-112 -224h-368z" />
    <glyph glyph-name="paragraph" unicode="&#xb6;" horiz-adv-x="2464" 
d="M1248 0l64 128h144l-64 -128h-144zM752 288l16 32h-80l-16 -32h80zM2144 128l48 96h-32l48 96h-80l-48 -96h32l-48 -96h80zM0 0l112 224h-32l112 224h368l-112 -224h32l-112 -224h-144l112 224h-32l48 96h-80l-48 -96h32l-112 -224h-144zM416 0l112 224h-32l112 224h368
l-112 -224h32l-112 -224h-144l80 160h-80l-80 -160h-144zM832 0l112 224h-32l112 224h144l-112 -224h32l-48 -96h224l-64 -128h-368zM1440 0l64 128h224l16 32h-224l32 64h-32l112 224h368l-64 -128h-224l-16 -32h224l-32 -64h32l-112 -224h-368zM1856 0l112 224h-32
l112 224h368l-112 -224h32l-112 -224h-368z" />
    <glyph glyph-name="periodcentered" unicode="&#xb7;" horiz-adv-x="192" 
d="M80 160l32 64h-32l32 64h144l-32 -64h32l-32 -64h-144z" />
    <glyph glyph-name="cedilla" unicode="&#xb8;" horiz-adv-x="2464" 
d="M1248 0l64 128h144l-64 -128h-144zM752 288l16 32h-80l-16 -32h80zM2144 128l48 96h-32l48 96h-80l-48 -96h32l-48 -96h80zM0 0l112 224h-32l112 224h368l-112 -224h32l-112 -224h-144l112 224h-32l48 96h-80l-48 -96h32l-112 -224h-144zM416 0l112 224h-32l112 224h368
l-112 -224h32l-112 -224h-144l80 160h-80l-80 -160h-144zM832 0l112 224h-32l112 224h144l-112 -224h32l-48 -96h224l-64 -128h-368zM1440 0l64 128h224l16 32h-224l32 64h-32l112 224h368l-64 -128h-224l-16 -32h224l-32 -64h32l-112 -224h-368zM1856 0l112 224h-32
l112 224h368l-112 -224h32l-112 -224h-368z" />
    <glyph glyph-name="uni00B9" unicode="&#xb9;" horiz-adv-x="2464" 
d="M1248 0l64 128h144l-64 -128h-144zM752 288l16 32h-80l-16 -32h80zM2144 128l48 96h-32l48 96h-80l-48 -96h32l-48 -96h80zM0 0l112 224h-32l112 224h368l-112 -224h32l-112 -224h-144l112 224h-32l48 96h-80l-48 -96h32l-112 -224h-144zM416 0l112 224h-32l112 224h368
l-112 -224h32l-112 -224h-144l80 160h-80l-80 -160h-144zM832 0l112 224h-32l112 224h144l-112 -224h32l-48 -96h224l-64 -128h-368zM1440 0l64 128h224l16 32h-224l32 64h-32l112 224h368l-64 -128h-224l-16 -32h224l-32 -64h32l-112 -224h-368zM1856 0l112 224h-32
l112 224h368l-112 -224h32l-112 -224h-368z" />
    <glyph glyph-name="ordmasculine" unicode="&#xba;" horiz-adv-x="2464" 
d="M1248 0l64 128h144l-64 -128h-144zM752 288l16 32h-80l-16 -32h80zM2144 128l48 96h-32l48 96h-80l-48 -96h32l-48 -96h80zM0 0l112 224h-32l112 224h368l-112 -224h32l-112 -224h-144l112 224h-32l48 96h-80l-48 -96h32l-112 -224h-144zM416 0l112 224h-32l112 224h368
l-112 -224h32l-112 -224h-144l80 160h-80l-80 -160h-144zM832 0l112 224h-32l112 224h144l-112 -224h32l-48 -96h224l-64 -128h-368zM1440 0l64 128h224l16 32h-224l32 64h-32l112 224h368l-64 -128h-224l-16 -32h224l-32 -64h32l-112 -224h-368zM1856 0l112 224h-32
l112 224h368l-112 -224h32l-112 -224h-368z" />
    <glyph glyph-name="guillemotright" unicode="&#xbb;" horiz-adv-x="2464" 
d="M1248 0l64 128h144l-64 -128h-144zM752 288l16 32h-80l-16 -32h80zM2144 128l48 96h-32l48 96h-80l-48 -96h32l-48 -96h80zM0 0l112 224h-32l112 224h368l-112 -224h32l-112 -224h-144l112 224h-32l48 96h-80l-48 -96h32l-112 -224h-144zM416 0l112 224h-32l112 224h368
l-112 -224h32l-112 -224h-144l80 160h-80l-80 -160h-144zM832 0l112 224h-32l112 224h144l-112 -224h32l-48 -96h224l-64 -128h-368zM1440 0l64 128h224l16 32h-224l32 64h-32l112 224h368l-64 -128h-224l-16 -32h224l-32 -64h32l-112 -224h-368zM1856 0l112 224h-32
l112 224h368l-112 -224h32l-112 -224h-368z" />
    <glyph glyph-name="onequarter" unicode="&#xbc;" horiz-adv-x="2464" 
d="M1248 0l64 128h144l-64 -128h-144zM752 288l16 32h-80l-16 -32h80zM2144 128l48 96h-32l48 96h-80l-48 -96h32l-48 -96h80zM0 0l112 224h-32l112 224h368l-112 -224h32l-112 -224h-144l112 224h-32l48 96h-80l-48 -96h32l-112 -224h-144zM416 0l112 224h-32l112 224h368
l-112 -224h32l-112 -224h-144l80 160h-80l-80 -160h-144zM832 0l112 224h-32l112 224h144l-112 -224h32l-48 -96h224l-64 -128h-368zM1440 0l64 128h224l16 32h-224l32 64h-32l112 224h368l-64 -128h-224l-16 -32h224l-32 -64h32l-112 -224h-368zM1856 0l112 224h-32
l112 224h368l-112 -224h32l-112 -224h-368z" />
    <glyph glyph-name="onehalf" unicode="&#xbd;" horiz-adv-x="2464" 
d="M1248 0l64 128h144l-64 -128h-144zM752 288l16 32h-80l-16 -32h80zM2144 128l48 96h-32l48 96h-80l-48 -96h32l-48 -96h80zM0 0l112 224h-32l112 224h368l-112 -224h32l-112 -224h-144l112 224h-32l48 96h-80l-48 -96h32l-112 -224h-144zM416 0l112 224h-32l112 224h368
l-112 -224h32l-112 -224h-144l80 160h-80l-80 -160h-144zM832 0l112 224h-32l112 224h144l-112 -224h32l-48 -96h224l-64 -128h-368zM1440 0l64 128h224l16 32h-224l32 64h-32l112 224h368l-64 -128h-224l-16 -32h224l-32 -64h32l-112 -224h-368zM1856 0l112 224h-32
l112 224h368l-112 -224h32l-112 -224h-368z" />
    <glyph glyph-name="threequarters" unicode="&#xbe;" horiz-adv-x="2464" 
d="M1248 0l64 128h144l-64 -128h-144zM752 288l16 32h-80l-16 -32h80zM2144 128l48 96h-32l48 96h-80l-48 -96h32l-48 -96h80zM0 0l112 224h-32l112 224h368l-112 -224h32l-112 -224h-144l112 224h-32l48 96h-80l-48 -96h32l-112 -224h-144zM416 0l112 224h-32l112 224h368
l-112 -224h32l-112 -224h-144l80 160h-80l-80 -160h-144zM832 0l112 224h-32l112 224h144l-112 -224h32l-48 -96h224l-64 -128h-368zM1440 0l64 128h224l16 32h-224l32 64h-32l112 224h368l-64 -128h-224l-16 -32h224l-32 -64h32l-112 -224h-368zM1856 0l112 224h-32
l112 224h368l-112 -224h32l-112 -224h-368z" />
    <glyph glyph-name="questiondown" unicode="&#xbf;" horiz-adv-x="2464" 
d="M1248 0l64 128h144l-64 -128h-144zM752 288l16 32h-80l-16 -32h80zM2144 128l48 96h-32l48 96h-80l-48 -96h32l-48 -96h80zM0 0l112 224h-32l112 224h368l-112 -224h32l-112 -224h-144l112 224h-32l48 96h-80l-48 -96h32l-112 -224h-144zM416 0l112 224h-32l112 224h368
l-112 -224h32l-112 -224h-144l80 160h-80l-80 -160h-144zM832 0l112 224h-32l112 224h144l-112 -224h32l-48 -96h224l-64 -128h-368zM1440 0l64 128h224l16 32h-224l32 64h-32l112 224h368l-64 -128h-224l-16 -32h224l-32 -64h32l-112 -224h-368zM1856 0l112 224h-32
l112 224h368l-112 -224h32l-112 -224h-368z" />
    <glyph glyph-name="Agrave" unicode="&#xc0;" 
d="M288 128l16 32h-80l-16 -32h80zM0 0l112 224h-32l32 64h224l16 32h-224l64 128h368l-112 -224h32l-112 -224h-368z" />
    <glyph glyph-name="Aacute" unicode="&#xc1;" 
d="M288 128l16 32h-80l-16 -32h80zM0 0l112 224h-32l32 64h224l16 32h-224l64 128h368l-112 -224h32l-112 -224h-368z" />
    <glyph glyph-name="Acircumflex" unicode="&#xc2;" 
d="M288 128l16 32h-80l-16 -32h80zM0 0l112 224h-32l32 64h224l16 32h-224l64 128h368l-112 -224h32l-112 -224h-368z" />
    <glyph glyph-name="Atilde" unicode="&#xc3;" 
d="M288 128l16 32h-80l-16 -32h80zM0 0l112 224h-32l32 64h224l16 32h-224l64 128h368l-112 -224h32l-112 -224h-368z" />
    <glyph glyph-name="Adieresis" unicode="&#xc4;" 
d="M288 128l16 32h-80l-16 -32h80zM0 0l112 224h-32l32 64h224l16 32h-224l64 128h368l-112 -224h32l-112 -224h-368z" />
    <glyph glyph-name="Aring" unicode="&#xc5;" 
d="M288 128l16 32h-80l-16 -32h80zM0 0l112 224h-32l32 64h224l16 32h-224l64 128h368l-112 -224h32l-112 -224h-368z" />
    <glyph glyph-name="AE" unicode="&#xc6;" horiz-adv-x="640" 
d="M288 128l16 32h-80l-16 -32h80zM560 288l16 32h-80l-16 -32h80zM0 0l112 224h-32l32 64h224l16 32h-224l64 128h592l-112 -224h32l-32 -64h-224l-16 -32h224l-64 -128h-592z" />
    <glyph glyph-name="Ccedilla" unicode="&#xc7;" 
d="M0 0l112 224h-32l112 224h368l-64 -128h-224l-48 -96h32l-48 -96h224l-64 -128h-368z" />
    <glyph glyph-name="Egrave" unicode="&#xc8;" 
d="M336 288l16 32h-80l-16 -32h80zM0 0l112 224h-32l112 224h368l-112 -224h32l-32 -64h-224l-16 -32h224l-64 -128h-368z" />
    <glyph glyph-name="Eacute" unicode="&#xc9;" 
d="M336 288l16 32h-80l-16 -32h80zM0 0l112 224h-32l112 224h368l-112 -224h32l-32 -64h-224l-16 -32h224l-64 -128h-368z" />
    <glyph glyph-name="Ecircumflex" unicode="&#xca;" 
d="M336 288l16 32h-80l-16 -32h80zM0 0l112 224h-32l112 224h368l-112 -224h32l-32 -64h-224l-16 -32h224l-64 -128h-368z" />
    <glyph glyph-name="Edieresis" unicode="&#xcb;" 
d="M336 288l16 32h-80l-16 -32h80zM0 0l112 224h-32l112 224h368l-112 -224h32l-32 -64h-224l-16 -32h224l-64 -128h-368z" />
    <glyph glyph-name="Igrave" unicode="&#xcc;" horiz-adv-x="192" 
d="M0 0l112 224h-32l112 224h144l-112 -224h32l-112 -224h-144zM208 480l64 128h144l-64 -128h-144z" />
    <glyph glyph-name="Iacute" unicode="&#xcd;" horiz-adv-x="192" 
d="M0 0l112 224h-32l112 224h144l-112 -224h32l-112 -224h-144zM208 480l64 128h144l-64 -128h-144z" />
    <glyph glyph-name="Icircumflex" unicode="&#xce;" horiz-adv-x="192" 
d="M0 0l112 224h-32l112 224h144l-112 -224h32l-112 -224h-144zM208 480l64 128h144l-64 -128h-144z" />
    <glyph glyph-name="Idieresis" unicode="&#xcf;" horiz-adv-x="192" 
d="M0 0l112 224h-32l112 224h144l-112 -224h32l-112 -224h-144zM208 480l64 128h144l-64 -128h-144z" />
    <glyph glyph-name="Eth" unicode="&#xd0;" 
d="M288 128l48 96h-32l48 96h-80l-48 -96h32l-48 -96h80zM0 0l112 224h-32l112 224h224l16 32h-48l32 64h48l16 32h144l-16 -32h48l-32 -64h-48l-128 -256h32l-112 -224h-368z" />
    <glyph glyph-name="Ntilde" unicode="&#xd1;" 
d="M0 0l112 224h-32l112 224h368l-112 -224h32l-112 -224h-144l112 224h-32l48 96h-80l-48 -96h32l-112 -224h-144z" />
    <glyph glyph-name="Ograve" unicode="&#xd2;" 
d="M288 128l48 96h-32l48 96h-80l-48 -96h32l-48 -96h80zM0 0l112 224h-32l112 224h368l-112 -224h32l-112 -224h-368z" />
    <glyph glyph-name="Oacute" unicode="&#xd3;" 
d="M288 128l48 96h-32l48 96h-80l-48 -96h32l-48 -96h80zM0 0l112 224h-32l112 224h368l-112 -224h32l-112 -224h-368z" />
    <glyph glyph-name="Ocircumflex" unicode="&#xd4;" 
d="M288 128l48 96h-32l48 96h-80l-48 -96h32l-48 -96h80zM0 0l112 224h-32l112 224h368l-112 -224h32l-112 -224h-368z" />
    <glyph glyph-name="Otilde" unicode="&#xd5;" 
d="M288 128l48 96h-32l48 96h-80l-48 -96h32l-48 -96h80zM0 0l112 224h-32l112 224h368l-112 -224h32l-112 -224h-368z" />
    <glyph glyph-name="Odieresis" unicode="&#xd6;" 
d="M288 128l48 96h-32l48 96h-80l-48 -96h32l-48 -96h80zM0 0l112 224h-32l112 224h368l-112 -224h32l-112 -224h-368z" />
    <glyph glyph-name="multiply" unicode="&#xd7;" horiz-adv-x="2464" 
d="M1248 0l64 128h144l-64 -128h-144zM752 288l16 32h-80l-16 -32h80zM2144 128l48 96h-32l48 96h-80l-48 -96h32l-48 -96h80zM0 0l112 224h-32l112 224h368l-112 -224h32l-112 -224h-144l112 224h-32l48 96h-80l-48 -96h32l-112 -224h-144zM416 0l112 224h-32l112 224h368
l-112 -224h32l-112 -224h-144l80 160h-80l-80 -160h-144zM832 0l112 224h-32l112 224h144l-112 -224h32l-48 -96h224l-64 -128h-368zM1440 0l64 128h224l16 32h-224l32 64h-32l112 224h368l-64 -128h-224l-16 -32h224l-32 -64h32l-112 -224h-368zM1856 0l112 224h-32
l112 224h368l-112 -224h32l-112 -224h-368z" />
    <glyph glyph-name="Oslash" unicode="&#xd8;" 
d="M288 128l48 96h-32l48 96h-80l-48 -96h32l-48 -96h80zM0 0l112 224h-32l112 224h368l-112 -224h32l-112 -224h-368z" />
    <glyph glyph-name="Ugrave" unicode="&#xd9;" 
d="M0 0l112 224h-32l112 224h144l-112 -224h32l-48 -96h80l48 96h-32l112 224h144l-112 -224h32l-112 -224h-368z" />
    <glyph glyph-name="Uacute" unicode="&#xda;" 
d="M0 0l112 224h-32l112 224h144l-112 -224h32l-48 -96h80l48 96h-32l112 224h144l-112 -224h32l-112 -224h-368z" />
    <glyph glyph-name="Ucircumflex" unicode="&#xdb;" 
d="M0 0l112 224h-32l112 224h144l-112 -224h32l-48 -96h80l48 96h-32l112 224h144l-112 -224h32l-112 -224h-368z" />
    <glyph glyph-name="Udieresis" unicode="&#xdc;" 
d="M0 0l112 224h-32l112 224h144l-112 -224h32l-48 -96h80l48 96h-32l112 224h144l-112 -224h32l-112 -224h-368z" />
    <glyph glyph-name="Yacute" unicode="&#xdd;" 
d="M160 -128l64 128h-224l112 224h-32l112 224h144l-112 -224h32l-48 -96h80l48 96h-32l112 224h144l-112 -224h32l-176 -352h-144z" />
    <glyph glyph-name="Thorn" unicode="&#xde;" 
d="M320 192l16 32h-32l16 32h-80l-16 -32h32l-16 -32h80zM0 0l112 224h-32l112 224h144l-32 -64h224l-80 -160h32l-80 -160h-224l-32 -64h-144z" />
    <glyph glyph-name="germandbls" unicode="&#xdf;" 
d="M0 0l112 224h-32l112 224h368l-112 -224h32l-112 -224h-176l64 128h32l16 32h-32l32 64h-32l32 64h32l16 32h-80l-48 -96h32l-112 -224h-144z" />
    <glyph glyph-name="agrave" unicode="&#xe0;" 
d="M288 128l16 32h-80l-16 -32h80zM0 0l112 224h-32l32 64h224l16 32h-224l64 128h368l-112 -224h32l-112 -224h-368z" />
    <glyph glyph-name="aacute" unicode="&#xe1;" 
d="M288 128l16 32h-80l-16 -32h80zM0 0l112 224h-32l32 64h224l16 32h-224l64 128h368l-112 -224h32l-112 -224h-368z" />
    <glyph glyph-name="acircumflex" unicode="&#xe2;" 
d="M288 128l16 32h-80l-16 -32h80zM0 0l112 224h-32l32 64h224l16 32h-224l64 128h368l-112 -224h32l-112 -224h-368z" />
    <glyph glyph-name="atilde" unicode="&#xe3;" 
d="M288 128l16 32h-80l-16 -32h80zM0 0l112 224h-32l32 64h224l16 32h-224l64 128h368l-112 -224h32l-112 -224h-368z" />
    <glyph glyph-name="adieresis" unicode="&#xe4;" 
d="M288 128l16 32h-80l-16 -32h80zM0 0l112 224h-32l32 64h224l16 32h-224l64 128h368l-112 -224h32l-112 -224h-368z" />
    <glyph glyph-name="aring" unicode="&#xe5;" 
d="M288 128l16 32h-80l-16 -32h80zM0 0l112 224h-32l32 64h224l16 32h-224l64 128h368l-112 -224h32l-112 -224h-368z" />
    <glyph glyph-name="ae" unicode="&#xe6;" horiz-adv-x="640" 
d="M288 128l16 32h-80l-16 -32h80zM560 288l16 32h-80l-16 -32h80zM0 0l112 224h-32l32 64h224l16 32h-224l64 128h592l-112 -224h32l-32 -64h-224l-16 -32h224l-64 -128h-592z" />
    <glyph glyph-name="ccedilla" unicode="&#xe7;" 
d="M0 0l112 224h-32l112 224h368l-64 -128h-224l-48 -96h32l-48 -96h224l-64 -128h-368z" />
    <glyph glyph-name="egrave" unicode="&#xe8;" 
d="M336 288l16 32h-80l-16 -32h80zM0 0l112 224h-32l112 224h368l-112 -224h32l-32 -64h-224l-16 -32h224l-64 -128h-368z" />
    <glyph glyph-name="eacute" unicode="&#xe9;" 
d="M336 288l16 32h-80l-16 -32h80zM0 0l112 224h-32l112 224h368l-112 -224h32l-32 -64h-224l-16 -32h224l-64 -128h-368z" />
    <glyph glyph-name="ecircumflex" unicode="&#xea;" 
d="M336 288l16 32h-80l-16 -32h80zM0 0l112 224h-32l112 224h368l-112 -224h32l-32 -64h-224l-16 -32h224l-64 -128h-368z" />
    <glyph glyph-name="edieresis" unicode="&#xeb;" 
d="M336 288l16 32h-80l-16 -32h80zM0 0l112 224h-32l112 224h368l-112 -224h32l-32 -64h-224l-16 -32h224l-64 -128h-368z" />
    <glyph glyph-name="igrave" unicode="&#xec;" horiz-adv-x="192" 
d="M0 0l112 224h-32l112 224h144l-112 -224h32l-112 -224h-144zM208 480l64 128h144l-64 -128h-144z" />
    <glyph glyph-name="iacute" unicode="&#xed;" horiz-adv-x="192" 
d="M0 0l112 224h-32l112 224h144l-112 -224h32l-112 -224h-144zM208 480l64 128h144l-64 -128h-144z" />
    <glyph glyph-name="icircumflex" unicode="&#xee;" horiz-adv-x="192" 
d="M0 0l112 224h-32l112 224h144l-112 -224h32l-112 -224h-144zM208 480l64 128h144l-64 -128h-144z" />
    <glyph glyph-name="idieresis" unicode="&#xef;" horiz-adv-x="192" 
d="M0 0l112 224h-32l112 224h144l-112 -224h32l-112 -224h-144zM208 480l64 128h144l-64 -128h-144z" />
    <glyph glyph-name="eth" unicode="&#xf0;" 
d="M288 128l48 96h-32l48 96h-80l-48 -96h32l-48 -96h80zM0 0l112 224h-32l112 224h224l16 32h-48l32 64h48l16 32h144l-16 -32h48l-32 -64h-48l-128 -256h32l-112 -224h-368z" />
    <glyph glyph-name="ntilde" unicode="&#xf1;" 
d="M0 0l112 224h-32l112 224h368l-112 -224h32l-112 -224h-144l112 224h-32l48 96h-80l-48 -96h32l-112 -224h-144z" />
    <glyph glyph-name="ograve" unicode="&#xf2;" 
d="M288 128l48 96h-32l48 96h-80l-48 -96h32l-48 -96h80zM0 0l112 224h-32l112 224h368l-112 -224h32l-112 -224h-368z" />
    <glyph glyph-name="oacute" unicode="&#xf3;" 
d="M288 128l48 96h-32l48 96h-80l-48 -96h32l-48 -96h80zM0 0l112 224h-32l112 224h368l-112 -224h32l-112 -224h-368z" />
    <glyph glyph-name="ocircumflex" unicode="&#xf4;" 
d="M288 128l48 96h-32l48 96h-80l-48 -96h32l-48 -96h80zM0 0l112 224h-32l112 224h368l-112 -224h32l-112 -224h-368z" />
    <glyph glyph-name="otilde" unicode="&#xf5;" 
d="M288 128l48 96h-32l48 96h-80l-48 -96h32l-48 -96h80zM0 0l112 224h-32l112 224h368l-112 -224h32l-112 -224h-368z" />
    <glyph glyph-name="odieresis" unicode="&#xf6;" 
d="M288 128l48 96h-32l48 96h-80l-48 -96h32l-48 -96h80zM0 0l112 224h-32l112 224h368l-112 -224h32l-112 -224h-368z" />
    <glyph glyph-name="divide" unicode="&#xf7;" horiz-adv-x="2464" 
d="M1248 0l64 128h144l-64 -128h-144zM752 288l16 32h-80l-16 -32h80zM2144 128l48 96h-32l48 96h-80l-48 -96h32l-48 -96h80zM0 0l112 224h-32l112 224h368l-112 -224h32l-112 -224h-144l112 224h-32l48 96h-80l-48 -96h32l-112 -224h-144zM416 0l112 224h-32l112 224h368
l-112 -224h32l-112 -224h-144l80 160h-80l-80 -160h-144zM832 0l112 224h-32l112 224h144l-112 -224h32l-48 -96h224l-64 -128h-368zM1440 0l64 128h224l16 32h-224l32 64h-32l112 224h368l-64 -128h-224l-16 -32h224l-32 -64h32l-112 -224h-368zM1856 0l112 224h-32
l112 224h368l-112 -224h32l-112 -224h-368z" />
    <glyph glyph-name="oslash" unicode="&#xf8;" 
d="M288 128l48 96h-32l48 96h-80l-48 -96h32l-48 -96h80zM0 0l112 224h-32l112 224h368l-112 -224h32l-112 -224h-368z" />
    <glyph glyph-name="ugrave" unicode="&#xf9;" 
d="M0 0l112 224h-32l112 224h144l-112 -224h32l-48 -96h80l48 96h-32l112 224h144l-112 -224h32l-112 -224h-368z" />
    <glyph glyph-name="uacute" unicode="&#xfa;" 
d="M0 0l112 224h-32l112 224h144l-112 -224h32l-48 -96h80l48 96h-32l112 224h144l-112 -224h32l-112 -224h-368z" />
    <glyph glyph-name="ucircumflex" unicode="&#xfb;" 
d="M0 0l112 224h-32l112 224h144l-112 -224h32l-48 -96h80l48 96h-32l112 224h144l-112 -224h32l-112 -224h-368z" />
    <glyph glyph-name="udieresis" unicode="&#xfc;" 
d="M0 0l112 224h-32l112 224h144l-112 -224h32l-48 -96h80l48 96h-32l112 224h144l-112 -224h32l-112 -224h-368z" />
    <glyph glyph-name="yacute" unicode="&#xfd;" 
d="M160 -128l64 128h-224l112 224h-32l112 224h144l-112 -224h32l-48 -96h80l48 96h-32l112 224h144l-112 -224h32l-176 -352h-144z" />
    <glyph glyph-name="thorn" unicode="&#xfe;" 
d="M320 192l16 32h-32l16 32h-80l-16 -32h32l-16 -32h80zM0 0l112 224h-32l112 224h144l-32 -64h224l-80 -160h32l-80 -160h-224l-32 -64h-144z" />
    <glyph glyph-name="ydieresis" unicode="&#xff;" 
d="M160 -128l64 128h-224l112 224h-32l112 224h144l-112 -224h32l-48 -96h80l48 96h-32l112 224h144l-112 -224h32l-176 -352h-144z" />
    <glyph glyph-name="Ydieresis" unicode="&#x178;" 
d="M160 -128l64 128h-224l112 224h-32l112 224h144l-112 -224h32l-48 -96h80l48 96h-32l112 224h144l-112 -224h32l-176 -352h-144z" />
    <glyph glyph-name="emdash" unicode="&#x2014;" 
d="M80 160l32 64h-32l32 64h368l-32 -64h32l-32 -64h-368z" />
    <glyph glyph-name="quoteleft" unicode="&#x2018;" horiz-adv-x="192" 
d="M192 448l64 128h144l-64 -128h-144z" />
    <glyph glyph-name="quoteright" unicode="&#x2019;" horiz-adv-x="192" 
d="M192 448l64 128h144l-64 -128h-144z" />
    <glyph glyph-name="quotesinglbase" unicode="&#x201a;" horiz-adv-x="2464" 
d="M1248 0l64 128h144l-64 -128h-144zM752 288l16 32h-80l-16 -32h80zM2144 128l48 96h-32l48 96h-80l-48 -96h32l-48 -96h80zM0 0l112 224h-32l112 224h368l-112 -224h32l-112 -224h-144l112 224h-32l48 96h-80l-48 -96h32l-112 -224h-144zM416 0l112 224h-32l112 224h368
l-112 -224h32l-112 -224h-144l80 160h-80l-80 -160h-144zM832 0l112 224h-32l112 224h144l-112 -224h32l-48 -96h224l-64 -128h-368zM1440 0l64 128h224l16 32h-224l32 64h-32l112 224h368l-64 -128h-224l-16 -32h224l-32 -64h32l-112 -224h-368zM1856 0l112 224h-32
l112 224h368l-112 -224h32l-112 -224h-368z" />
    <glyph glyph-name="quotedblleft" unicode="&#x201c;" horiz-adv-x="192" 
d="M192 448l64 128h144l-64 -128h-144zM384 448l64 128h144l-64 -128h-144z" />
    <glyph glyph-name="quotedblright" unicode="&#x201d;" horiz-adv-x="192" 
d="M192 448l64 128h144l-64 -128h-144zM384 448l64 128h144l-64 -128h-144z" />
    <glyph glyph-name="quotedblbase" unicode="&#x201e;" horiz-adv-x="2464" 
d="M1248 0l64 128h144l-64 -128h-144zM752 288l16 32h-80l-16 -32h80zM2144 128l48 96h-32l48 96h-80l-48 -96h32l-48 -96h80zM0 0l112 224h-32l112 224h368l-112 -224h32l-112 -224h-144l112 224h-32l48 96h-80l-48 -96h32l-112 -224h-144zM416 0l112 224h-32l112 224h368
l-112 -224h32l-112 -224h-144l80 160h-80l-80 -160h-144zM832 0l112 224h-32l112 224h144l-112 -224h32l-48 -96h224l-64 -128h-368zM1440 0l64 128h224l16 32h-224l32 64h-32l112 224h368l-64 -128h-224l-16 -32h224l-32 -64h32l-112 -224h-368zM1856 0l112 224h-32
l112 224h368l-112 -224h32l-112 -224h-368z" />
    <glyph glyph-name="dagger" unicode="&#x2020;" horiz-adv-x="2464" 
d="M1248 0l64 128h144l-64 -128h-144zM752 288l16 32h-80l-16 -32h80zM2144 128l48 96h-32l48 96h-80l-48 -96h32l-48 -96h80zM0 0l112 224h-32l112 224h368l-112 -224h32l-112 -224h-144l112 224h-32l48 96h-80l-48 -96h32l-112 -224h-144zM416 0l112 224h-32l112 224h368
l-112 -224h32l-112 -224h-144l80 160h-80l-80 -160h-144zM832 0l112 224h-32l112 224h144l-112 -224h32l-48 -96h224l-64 -128h-368zM1440 0l64 128h224l16 32h-224l32 64h-32l112 224h368l-64 -128h-224l-16 -32h224l-32 -64h32l-112 -224h-368zM1856 0l112 224h-32
l112 224h368l-112 -224h32l-112 -224h-368z" />
    <glyph glyph-name="bullet" unicode="&#x2022;" horiz-adv-x="192" 
d="M80 160l32 64h-32l32 64h144l-32 -64h32l-32 -64h-144z" />
    <glyph glyph-name="ellipsis" unicode="&#x2026;" horiz-adv-x="576" 
d="M0 0l64 128h144l-64 -128h-144zM192 0l64 128h144l-64 -128h-144zM384 0l64 128h144l-64 -128h-144z" />
    <glyph glyph-name="guilsinglleft" unicode="&#x2039;" horiz-adv-x="2464" 
d="M1248 0l64 128h144l-64 -128h-144zM752 288l16 32h-80l-16 -32h80zM2144 128l48 96h-32l48 96h-80l-48 -96h32l-48 -96h80zM0 0l112 224h-32l112 224h368l-112 -224h32l-112 -224h-144l112 224h-32l48 96h-80l-48 -96h32l-112 -224h-144zM416 0l112 224h-32l112 224h368
l-112 -224h32l-112 -224h-144l80 160h-80l-80 -160h-144zM832 0l112 224h-32l112 224h144l-112 -224h32l-48 -96h224l-64 -128h-368zM1440 0l64 128h224l16 32h-224l32 64h-32l112 224h368l-64 -128h-224l-16 -32h224l-32 -64h32l-112 -224h-368zM1856 0l112 224h-32
l112 224h368l-112 -224h32l-112 -224h-368z" />
    <glyph glyph-name="guilsinglright" unicode="&#x203a;" horiz-adv-x="2464" 
d="M1248 0l64 128h144l-64 -128h-144zM752 288l16 32h-80l-16 -32h80zM2144 128l48 96h-32l48 96h-80l-48 -96h32l-48 -96h80zM0 0l112 224h-32l112 224h368l-112 -224h32l-112 -224h-144l112 224h-32l48 96h-80l-48 -96h32l-112 -224h-144zM416 0l112 224h-32l112 224h368
l-112 -224h32l-112 -224h-144l80 160h-80l-80 -160h-144zM832 0l112 224h-32l112 224h144l-112 -224h32l-48 -96h224l-64 -128h-368zM1440 0l64 128h224l16 32h-224l32 64h-32l112 224h368l-64 -128h-224l-16 -32h224l-32 -64h32l-112 -224h-368zM1856 0l112 224h-32
l112 224h368l-112 -224h32l-112 -224h-368z" />
    <glyph glyph-name="Euro" unicode="&#x20ac;" horiz-adv-x="480" 
d="M64 0l80 160h-64l32 64h-32l32 64h64l80 160h368l-64 -128h-224l-16 -32h128l-32 -64h32l-32 -64h-128l-16 -32h224l-64 -128h-368z" />
    <glyph glyph-name="trademark" unicode="&#x2122;" horiz-adv-x="448" 
d="M224 288v128h-64v32h160v-32h-64v-128h-32zM352 288v160h160v-160h-32v128h-32v-128h-32v128h-32v-128h-32z" />
  </font>
</defs>
</svg>
